<svg width="2242" height="1280" xmlns="http://www.w3.org/2000/svg" xmlns:xlink="http://www.w3.org/1999/xlink" overflow="hidden"><defs><clipPath id="clip0"><rect x="392" y="427" width="2242" height="1280"/></clipPath></defs><g clip-path="url(#clip0)" transform="translate(-392 -427)"><path d="M568.218 525.886C561.557 525.886 554.575 526.047 547.27 526.369L525.356 624.016 542.114 624.016C555.112 624.016 565.613 622.673 573.616 619.987 581.618 617.302 588.171 613.139 593.274 607.5 598.376 601.86 602.324 595.173 605.117 587.439 607.91 579.704 609.306 571.218 609.306 561.98 609.306 549.519 606.138 540.388 599.8 534.587 593.462 528.786 582.934 525.886 568.218 525.886ZM500.703 511.706 571.763 511.706C584.546 511.706 595.046 512.7 603.264 514.687 611.482 516.674 618.249 519.736 623.567 523.872 628.884 528.007 632.859 533.244 635.491 539.582 638.122 545.92 639.438 553.278 639.438 561.657 639.438 577.771 635.625 591.735 627.998 603.552 620.371 615.368 610.032 624.069 596.98 629.655 583.928 635.241 568.271 638.034 550.01 638.034 539.053 638.034 529.922 637.819 522.617 637.39L512.305 684.763C511.338 689.167 510.666 692.551 510.29 694.914 509.914 697.277 509.592 699.829 509.324 702.568 509.055 705.307 508.921 707.751 508.921 709.9 508.921 713.23 509.458 715.835 510.532 717.714 511.606 719.594 513.218 720.964 515.366 721.823 517.514 722.683 521.221 723.327 526.484 723.757L524.712 731.652 458.486 731.652 460.259 723.757C464.341 723.112 467.402 722.065 469.443 720.615 471.484 719.165 473.203 717.151 474.599 714.572 475.996 711.994 477.285 708.852 478.467 705.146 479.648 701.44 481.421 694.27 483.784 683.635L511.177 559.563C513.54 548.82 514.721 540.334 514.721 534.104 514.721 528.84 513.486 525.188 511.015 523.147 508.545 521.106 504.516 519.924 498.931 519.602Z" fill-rule="evenodd"/><text fill="#000000" fill-opacity="0" font-family="Arial,Arial_MSFontService,sans-serif" font-size="219.946" x="458.486" y="704.159">𝑃</text><path d="M788.389 498.816 792.739 511.223C767.603 519.494 748.992 535.634 736.907 559.643 724.822 583.652 718.779 613.811 718.779 650.119 718.779 687.717 724.822 718.708 736.907 743.093 748.992 767.478 767.442 783.806 792.256 792.077L788.389 804.484C756.914 796.213 732.798 778.408 716.04 751.069 699.282 723.73 690.903 690.617 690.903 651.731 690.903 612.951 699.309 579.839 716.121 552.392 732.932 524.946 757.022 507.087 788.389 498.816Z" fill-rule="evenodd"/><text fill="#000000" fill-opacity="0" font-family="Arial,Arial_MSFontService,sans-serif" font-size="305.669" x="690.903" y="766.276">(</text><path d="M820.902 526.208 956.737 526.208 956.737 731.652 820.902 731.652 820.902 709.255 931.6 709.255 931.6 636.262 822.674 636.262 822.674 613.703 931.6 613.703 931.6 548.606 820.902 548.606Z" fill-rule="evenodd"/><text fill="#000000" fill-opacity="0" font-family="Arial,Arial_MSFontService,sans-serif" font-size="205.444" x="820.902" y="705.972">∃</text><path d="M1043.87 511.706 1192.12 511.706 1181 561.174 1165.53 561.174C1165.1 551.828 1164.29 544.792 1163.11 540.066 1161.93 535.339 1160.51 532.089 1158.84 530.317 1157.18 528.545 1155.19 527.363 1152.88 526.772 1150.57 526.181 1147.27 525.886 1142.97 525.886L1090.44 525.886 1072.07 610.319 1102.85 610.319C1110.48 610.319 1116.3 608.52 1120.33 604.922 1124.36 601.323 1128.41 595.388 1132.5 587.116L1147.16 587.116 1132.66 648.991 1118.96 648.991C1118.96 640.398 1118.42 634.57 1117.35 631.508 1116.28 628.447 1114.69 626.513 1112.6 625.708 1110.5 624.902 1106.72 624.499 1101.24 624.499L1069.01 624.499 1048.39 717.473 1096.08 717.473C1102.42 717.473 1107.44 716.828 1111.15 715.539 1114.85 714.25 1118.34 712.155 1121.62 709.255 1124.9 706.355 1128.17 702.299 1131.45 697.089 1134.73 691.88 1138.62 684.817 1143.13 675.901L1158.76 675.901 1144.58 731.652 1001.66 731.652 1003.43 723.757C1007.51 723.112 1010.57 722.065 1012.61 720.615 1014.66 719.165 1016.37 717.151 1017.77 714.572 1019.17 711.994 1020.46 708.852 1021.64 705.146 1022.82 701.44 1024.59 694.27 1026.95 683.635L1054.35 559.563C1056.71 548.82 1057.89 540.173 1057.89 533.62 1057.89 528.571 1056.63 525.053 1054.11 523.066 1051.58 521.079 1047.58 519.924 1042.1 519.602Z" fill-rule="evenodd"/><text fill="#000000" fill-opacity="0" font-family="Arial,Arial_MSFontService,sans-serif" font-size="219.946" x="1001.66" y="704.159">𝐸</text><path d="M1222.1 498.816C1253.47 507.087 1277.55 524.946 1294.37 552.392 1311.18 579.839 1319.58 612.951 1319.58 651.731 1319.58 690.617 1311.2 723.73 1294.45 751.069 1277.69 778.408 1253.57 796.213 1222.1 804.484L1218.23 792.077C1243.05 783.806 1261.5 767.478 1273.58 743.093 1285.67 718.708 1291.71 687.717 1291.71 650.119 1291.71 613.811 1285.69 583.652 1273.66 559.643 1261.63 535.634 1242.99 519.494 1217.75 511.223Z" fill-rule="evenodd"/><text fill="#000000" fill-opacity="0" font-family="Arial,Arial_MSFontService,sans-serif" font-size="305.669" x="1217.75" y="766.276">)</text><path d="M1464.23 660.109 1662.74 660.109 1662.74 681.54 1464.23 681.54ZM1464.23 593.239 1662.74 593.239 1662.74 614.67 1464.23 614.67Z" fill-rule="evenodd"/><text fill="#000000" fill-opacity="0" font-family="Arial,Arial_MSFontService,sans-serif" font-size="88.3008" x="1464.23" y="670.503">=</text><path d="M1828.83 574.87C1835.6 574.87 1840.95 577.099 1844.87 581.557 1848.79 586.015 1850.75 591.843 1850.75 599.04 1850.75 604.411 1849.73 609.943 1847.69 615.637L1849.78 616.443C1860.31 602.155 1870.43 591.682 1880.16 585.022 1889.88 578.361 1899.73 575.031 1909.72 575.031 1917.57 575.031 1924.12 575.622 1929.38 576.804L1921.65 612.898 1905.05 612.898C1904.41 608.386 1903.49 604.895 1902.31 602.424 1901.13 599.953 1899.73 598.234 1898.12 597.268 1896.51 596.301 1894.47 595.818 1892 595.818 1888.13 595.818 1883.92 597.483 1879.35 600.813 1874.78 604.143 1869.66 609.353 1863.96 616.443 1858.27 623.532 1853.73 630.354 1850.35 636.906 1846.96 643.459 1844.14 651.784 1841.89 661.882L1826.58 731.652 1798.7 731.652 1822.07 629.494C1823.57 623.049 1824.54 618.054 1824.97 614.509 1825.4 610.964 1825.61 608.01 1825.61 605.647 1825.61 601.35 1824.91 598.234 1823.52 596.301 1822.12 594.367 1819.92 593.401 1816.91 593.401 1813.58 593.401 1810.06 594.77 1806.36 597.509 1802.65 600.249 1797.57 605.217 1791.13 612.414L1781.95 603.391C1791.83 593.078 1800.1 585.747 1806.76 581.396 1813.42 577.046 1820.78 574.87 1828.83 574.87Z" fill-rule="evenodd"/><text fill="#000000" fill-opacity="0" font-family="Arial,Arial_MSFontService,sans-serif" font-size="156.782" x="1781.95" y="712.055">𝑟</text><path d="M2127.62 533.781 2150.5 533.781 2150.5 626.594 2238.32 626.594 2238.32 648.025 2150.5 648.025 2150.5 740.837 2127.62 740.837 2127.62 648.025 2039.8 648.025 2039.8 626.594 2127.62 626.594Z" fill-rule="evenodd"/><text fill="#000000" fill-opacity="0" font-family="Arial,Arial_MSFontService,sans-serif" font-size="207.056" x="2039.8" y="714.955">+</text><path d="M2527.35 576.159 2536.86 576.159 2513.65 679.607C2511.29 690.134 2510.11 698.083 2510.11 703.454 2510.11 707.751 2510.81 710.866 2512.2 712.8 2513.6 714.734 2515.8 715.7 2518.81 715.7 2522.03 715.7 2525.47 714.384 2529.12 711.753 2532.78 709.121 2537.93 704.099 2544.59 696.687L2553.78 705.71C2543.25 716.775 2534.71 724.294 2528.16 728.269 2521.6 732.243 2514.25 734.231 2506.08 734.231 2499.1 734.231 2493.51 731.679 2489.32 726.577 2485.13 721.474 2483.04 714.948 2483.04 706.999 2483.04 698.835 2484.54 688.415 2487.55 675.739L2499.64 623.049C2502.11 612.307 2503.34 604.25 2503.34 598.879 2503.34 594.045 2502.19 590.769 2499.88 589.05 2497.57 587.331 2493.03 586.364 2486.26 586.15L2488.03 577.609ZM2523 514.445 2551.52 514.445 2544.11 545.705 2515.59 545.705ZM2386.88 511.706 2451.34 511.706 2449.56 519.602C2445.48 520.461 2442.55 521.428 2440.78 522.502 2439.01 523.576 2437.42 525.188 2436.03 527.336 2434.63 529.484 2433.18 532.841 2431.68 537.407 2430.17 541.972 2428.29 549.411 2426.04 559.724L2398.48 684.763C2397.09 691.101 2396.17 696.123 2395.74 699.829 2395.31 703.535 2395.1 706.892 2395.1 709.9 2395.1 714.734 2396.31 718.144 2398.73 720.131 2401.14 722.119 2405.2 723.327 2410.89 723.757L2409.12 731.652 2344.67 731.652 2346.44 723.757C2350.52 723.112 2353.58 722.065 2355.62 720.615 2357.66 719.165 2359.38 717.151 2360.78 714.572 2362.18 711.994 2363.46 708.852 2364.65 705.146 2365.83 701.44 2367.6 694.27 2369.96 683.635L2397.36 559.563C2399.72 548.82 2400.9 540.173 2400.9 533.62 2400.9 528.571 2399.64 525.053 2397.11 523.066 2394.59 521.079 2390.59 519.924 2385.11 519.602Z" fill-rule="evenodd"/><text fill="#000000" fill-opacity="0" font-family="Arial,Arial_MSFontService,sans-serif" font-size="222.524" x="2344.67" y="706.415">𝐼𝑖</text><text font-family="Yu Gothic UI, sans-serif" font-weight="700" font-size="92" transform="matrix(1 0 0 1 851.612 1057)">１．情報量<tspan font-family="Cambria Math,Cambria Math_MSFontService,sans-serif" font-size="110" x="484.688" y="0">I</tspan><tspan font-size="92" x="545.99" y="0">が増える（発見）</tspan><tspan font-size="92" x="0" y="198">２．確率</tspan><tspan font-family="Cambria Math,Cambria Math_MSFontService,sans-serif" font-size="110" x="393.021" y="198">r</tspan><tspan font-size="92" x="464.063" y="198">が１に近づく（予測）</tspan><tspan font-size="92" x="0" y="396">３．収力</tspan><tspan font-size="92" x="393.021" y="396">| </tspan><tspan font-family="Cambria Math,Cambria Math_MSFontService,sans-serif" font-size="110" x="430.26" y="396">P</tspan><tspan font-size="92" x="491.563" y="396"> | </tspan>が増加する（注目）<tspan font-size="92" x="0" y="569">４．１に戻る</tspan></text></g></svg>